<svg xmlns="http://www.w3.org/2000/svg" width="186.606" height="186.727" viewBox="0 0 186.606 186.727">
  <g id="グループ_5" data-name="グループ 5" transform="translate(-614.697 -117.637)">
    <g id="グループ_4" data-name="グループ 4">
      <g id="前面オブジェクトで型抜き_5" data-name="前面オブジェクトで型抜き 5" transform="translate(614.697 117.637)" fill="none">
        <path d="M82.3,186.727h0A93.958,93.958,0,0,1,0,104.863H4.031A89.949,89.949,0,0,0,82.3,182.7v4.028Zm23-.122h0V182.57a89.956,89.956,0,0,0,77.273-77.708h4.031A93.954,93.954,0,0,1,105.3,186.6ZM4.031,81.863H0A93.946,93.946,0,0,1,82.3,0V4.029A89.952,89.952,0,0,0,4.031,81.862Zm182.575,0h-4.031A89.959,89.959,0,0,0,105.3,4.156V.122a93.956,93.956,0,0,1,81.3,81.74Z" stroke="none"/>
        <path d="M 80.30322265625 184.4526214599609 L 80.30322265625 184.4518280029297 C 71.52820587158203 183.2114715576172 63.03214645385742 180.7208404541016 54.9908447265625 177.0318603515625 C 63.03224945068359 180.7218627929688 71.52790832519531 183.2125549316406 80.30322265625 184.4526214599609 M 107.3026962280273 184.3051452636719 C 116.707649230957 182.8705749511719 125.7817535400391 179.9946441650391 134.3070526123047 175.7434234619141 C 135.772216796875 175.0125579833984 137.2148132324219 174.2444000244141 138.6350555419922 173.4389801025391 C 137.2911071777344 174.200927734375 135.9258575439453 174.9302368164062 134.5416259765625 175.6254730224609 C 125.9523162841797 179.9394226074219 116.79736328125 182.8557434082031 107.3026962280273 184.3047027587891 L 107.3026962280273 184.3051452636719 M 178.6531677246094 127.7721862792969 C 181.3291320800781 121.144401550293 183.2133178710938 114.2366561889648 184.2776489257812 107.143684387207 C 183.2126312255859 114.2379302978516 181.328125 121.1459655761719 178.6531677246094 127.7721862792969 M 184.3192901611328 79.86222076416016 C 183.7646636962891 76.08859252929688 182.978759765625 72.36856842041016 181.9652404785156 68.71412658691406 C 182.9785614013672 72.36823272705078 183.7646331787109 76.08908843994141 184.3192138671875 79.86222076416016 L 184.3192901611328 79.86222076416016 M 2.28678297996521 79.86222076416016 C 2.548727750778198 78.07990264892578 2.862379789352417 76.30901336669922 3.227130174636841 74.55173492431641 C 2.862291097640991 76.30927276611328 2.548719644546509 78.07966613769531 2.286768198013306 79.86222076416016 L 2.28678297996521 79.86222076416016 M 50.12885284423828 12.10057067871094 C 50.98784637451172 11.64353179931641 51.85460662841797 11.1998176574707 52.72927093505859 10.76939392089844 C 61.43289947509766 6.486351490020752 70.70124053955078 3.631973505020142 80.30322265625 2.274768590927124 L 80.30322265625 2.274091482162476 C 70.77945709228516 3.619349241256714 61.5832633972168 6.438913822174072 52.93561935424805 10.66794395446777 C 51.99090957641602 11.12999057769775 51.05535888671875 11.60752868652344 50.12885284423828 12.10057067871094 M 135.5443878173828 11.61204624176025 C 135.1338958740234 11.39952659606934 134.7213439941406 11.18985366821289 134.3072967529297 10.98331928253174 C 125.7823486328125 6.732275009155273 116.7087631225586 3.856199502944946 107.3026962280273 2.420884132385254 L 107.3026962280273 2.421875715255737 C 116.7974243164062 3.870822668075562 125.9523620605469 6.787026405334473 134.5415496826172 11.1007194519043 C 134.8771667480469 11.26927852630615 135.2111053466797 11.43953800201416 135.5443878173828 11.61204624176025 M 82.30322265625 186.7266235351562 L 82.30222320556641 186.7266235351562 L 82.3013916015625 186.7266235351562 C 71.75354766845703 185.4969482421875 61.5778694152832 182.5118713378906 52.05691909790039 177.8544006347656 C 42.77984619140625 173.3171234130859 34.35129547119141 167.3101501464844 27.00542068481445 160.0001983642578 C 19.65971946716309 152.6923370361328 13.61089515686035 144.2955627441406 9.026994705200195 135.0431976318359 C 4.322444915771484 125.5494918823242 1.285320043563843 115.3952941894531 -4.931640432914719e-06 104.8626174926758 L 4.030770301818848 104.8626174926758 C 5.304719924926758 114.8529663085938 8.227570533752441 124.4834213256836 12.71909523010254 133.4872894287109 C 17.09689521789551 142.2632141113281 22.85449600219727 150.2322387695312 29.83197021484375 157.1730499267578 C 36.81101989746094 164.1153869628906 44.81192016601562 169.8314208984375 53.61231994628906 174.1623382568359 C 62.64432144165039 178.6071624755859 72.29731750488281 181.4789123535156 82.30322265625 182.6978149414062 L 82.30322265625 186.7256469726562 L 82.30322265625 186.7266235351562 Z M 105.3036193847656 186.6042175292969 L 105.3035430908203 186.6042175292969 L 105.303466796875 186.6042175292969 L 105.3026962280273 186.6042175292969 L 105.3026962280273 182.5702972412109 C 115.1959228515625 181.2522888183594 124.7310180664062 178.3147125244141 133.6439971923828 173.8382263183594 C 142.3344268798828 169.4734497070312 150.2304992675781 163.7521514892578 157.1128234863281 156.833251953125 C 163.9965972900391 149.9128723144531 169.6764984130859 141.9850006103516 173.9947509765625 133.2698516845703 C 178.4247894287109 124.3289947509766 181.3117218017578 114.7714157104492 182.5752258300781 104.8626174926758 L 186.6059875488281 104.8626174926758 C 185.3317718505859 115.312370300293 182.3306427001953 125.3932418823242 177.6870269775391 134.8262939453125 C 173.1619720458984 144.0168151855469 167.190673828125 152.3723754882812 159.9390258789062 159.6609191894531 C 152.6887512207031 166.9480743408203 144.3652648925781 172.9611511230469 135.1997985839844 177.5331268310547 C 125.7942199707031 182.2232971191406 115.7356948852539 185.2752227783203 105.3036193847656 186.6042175292969 Z M 4.030869960784912 81.86309814453125 L 4.030095100402832 81.86222076416016 L -4.931640432914719e-06 81.86222076416016 C 1.285245060920715 71.32929229736328 4.322695255279541 61.1757698059082 9.026994705200195 51.68251800537109 C 13.60999488830566 42.43191909790039 19.6588191986084 34.0351448059082 27.00542068481445 26.72551918029785 C 34.35304641723633 19.41474533081055 42.78159332275391 13.40774440765381 52.05691909790039 8.871319770812988 C 61.58221817016602 4.213069438934326 71.75852203369141 1.228344440460205 82.30322265625 1.939697176567279e-05 L 82.30322265625 4.028794288635254 C 72.29776763916016 5.247594356536865 62.64506912231445 8.118894577026367 53.61234664916992 12.56389427185059 C 44.81192016601562 16.89459419250488 36.81106948852539 22.6103687286377 29.83204460144043 29.55244445800781 C 22.85452079772949 36.49309539794922 17.09694480895996 44.46189498901367 12.71926975250244 53.23754501342773 C 8.228195190429688 62.24047088623047 5.304995059967041 71.87119293212891 4.030970096588135 81.86222076416016 L 4.030869960784912 81.86309814453125 Z M 186.6061401367188 81.86241912841797 L 186.6049957275391 81.86222076416016 L 182.5750274658203 81.86222076416016 C 181.3115692138672 71.95387268066406 178.4249877929688 62.39656829833984 173.9945526123047 53.45499420166016 C 169.6763458251953 44.74004364013672 163.9964752197266 36.81239318847656 157.1127014160156 29.89221954345703 C 150.2304992675781 22.97361946105957 142.33447265625 17.2525691986084 133.6439514160156 12.88796901702881 C 124.7318954467773 8.412144660949707 115.1965179443359 5.474369525909424 105.3026962280273 4.156294345855713 L 105.3026962280273 0.1215193942189217 C 115.7375183105469 1.451619386672974 125.7959671020508 4.504194259643555 135.1997985839844 9.193519592285156 C 144.3681182861328 13.76684474945068 152.6915893554688 19.77964401245117 159.9390258789062 27.0648193359375 C 167.1909637451172 34.35364532470703 173.1622772216797 42.70954513549805 177.6870269775391 51.90031814575195 C 182.3297729492188 61.33074569702148 185.3305511474609 71.41109466552734 186.6059875488281 81.86132049560547 L 186.6061401367188 81.86241912841797 Z" stroke="none" fill="#fff"/>
      </g>
    </g>
    <circle id="楕円形_6" data-name="楕円形 6" cx="69.5" cy="69.5" r="69.5" transform="translate(638 142)" fill="#fff"/>
  </g>
</svg>
